<mxfile host="app.diagrams.net" agent="Mozilla/5.0 (X11; Linux x86_64) AppleWebKit/537.36 (KHTML, like Gecko) Chrome/135.0.0.0 Safari/537.36" version="26.2.13">
  <diagram name="PÃ¡gina-1" id="Nb5u3e4zJGr4t1fFG60O">
    <mxGraphModel dx="1362" dy="759" grid="1" gridSize="10" guides="1" tooltips="1" connect="1" arrows="1" fold="1" page="1" pageScale="1" pageWidth="827" pageHeight="1169" math="0" shadow="0">
      <root>
        <mxCell id="0" />
        <mxCell id="1" parent="0" />
        <mxCell id="XbUZ6WS-I04eNJcUX636-12" style="edgeStyle=orthogonalEdgeStyle;rounded=0;orthogonalLoop=1;jettySize=auto;html=1;exitX=0.5;exitY=0;exitDx=0;exitDy=0;" edge="1" parent="1" source="XbUZ6WS-I04eNJcUX636-1" target="XbUZ6WS-I04eNJcUX636-2">
          <mxGeometry relative="1" as="geometry" />
        </mxCell>
        <mxCell id="XbUZ6WS-I04eNJcUX636-1" value="Model Serving" style="rounded=1;whiteSpace=wrap;html=1;" vertex="1" parent="1">
          <mxGeometry x="350" y="360" width="120" height="60" as="geometry" />
        </mxCell>
        <mxCell id="XbUZ6WS-I04eNJcUX636-2" value="Model Registry" style="rounded=1;whiteSpace=wrap;html=1;" vertex="1" parent="1">
          <mxGeometry x="350" y="250" width="120" height="60" as="geometry" />
        </mxCell>
        <mxCell id="XbUZ6WS-I04eNJcUX636-3" value="Data Warehouse" style="rounded=1;whiteSpace=wrap;html=1;" vertex="1" parent="1">
          <mxGeometry x="90" y="190" width="120" height="60" as="geometry" />
        </mxCell>
        <mxCell id="XbUZ6WS-I04eNJcUX636-11" style="edgeStyle=orthogonalEdgeStyle;rounded=0;orthogonalLoop=1;jettySize=auto;html=1;exitX=0;exitY=0.5;exitDx=0;exitDy=0;entryX=1;entryY=0.5;entryDx=0;entryDy=0;" edge="1" parent="1" source="XbUZ6WS-I04eNJcUX636-4" target="XbUZ6WS-I04eNJcUX636-1">
          <mxGeometry relative="1" as="geometry" />
        </mxCell>
        <mxCell id="XbUZ6WS-I04eNJcUX636-4" value="Logging" style="rounded=1;whiteSpace=wrap;html=1;" vertex="1" parent="1">
          <mxGeometry x="540" y="360" width="120" height="60" as="geometry" />
        </mxCell>
        <mxCell id="XbUZ6WS-I04eNJcUX636-8" style="edgeStyle=orthogonalEdgeStyle;rounded=0;orthogonalLoop=1;jettySize=auto;html=1;exitX=0.5;exitY=0;exitDx=0;exitDy=0;" edge="1" parent="1" source="XbUZ6WS-I04eNJcUX636-5" target="XbUZ6WS-I04eNJcUX636-3">
          <mxGeometry relative="1" as="geometry" />
        </mxCell>
        <mxCell id="XbUZ6WS-I04eNJcUX636-9" style="edgeStyle=orthogonalEdgeStyle;rounded=0;orthogonalLoop=1;jettySize=auto;html=1;exitX=1;exitY=0.5;exitDx=0;exitDy=0;entryX=0;entryY=0.5;entryDx=0;entryDy=0;" edge="1" parent="1" source="XbUZ6WS-I04eNJcUX636-5" target="XbUZ6WS-I04eNJcUX636-2">
          <mxGeometry relative="1" as="geometry" />
        </mxCell>
        <mxCell id="XbUZ6WS-I04eNJcUX636-10" style="edgeStyle=orthogonalEdgeStyle;rounded=0;orthogonalLoop=1;jettySize=auto;html=1;exitX=1;exitY=0.5;exitDx=0;exitDy=0;entryX=0;entryY=0.5;entryDx=0;entryDy=0;" edge="1" parent="1" source="XbUZ6WS-I04eNJcUX636-5" target="XbUZ6WS-I04eNJcUX636-1">
          <mxGeometry relative="1" as="geometry" />
        </mxCell>
        <mxCell id="XbUZ6WS-I04eNJcUX636-5" value="Development Env" style="rounded=1;whiteSpace=wrap;html=1;" vertex="1" parent="1">
          <mxGeometry x="90" y="330" width="120" height="60" as="geometry" />
        </mxCell>
        <mxCell id="XbUZ6WS-I04eNJcUX636-7" style="edgeStyle=orthogonalEdgeStyle;rounded=0;orthogonalLoop=1;jettySize=auto;html=1;exitX=0.5;exitY=0;exitDx=0;exitDy=0;exitPerimeter=0;entryX=0.5;entryY=1;entryDx=0;entryDy=0;" edge="1" parent="1" source="XbUZ6WS-I04eNJcUX636-6" target="XbUZ6WS-I04eNJcUX636-5">
          <mxGeometry relative="1" as="geometry" />
        </mxCell>
        <mxCell id="XbUZ6WS-I04eNJcUX636-6" value="User" style="shape=umlActor;verticalLabelPosition=bottom;verticalAlign=top;html=1;outlineConnect=0;" vertex="1" parent="1">
          <mxGeometry x="135" y="490" width="30" height="60" as="geometry" />
        </mxCell>
      </root>
    </mxGraphModel>
  </diagram>
</mxfile>
